<svg width="180" height="180" viewBox="0 0 180 180" fill="none" xmlns="http://www.w3.org/2000/svg">
<rect width="180" height="180" fill="#041827"/>
<path d="M105.25 57.9995C108.18 57.9995 110.655 59.8872 111.586 62.4994H134.914C135.846 59.8872 138.321 57.9995 141.25 57.9995C144.972 57.9995 148 61.0279 148 64.7493C148 68.4708 144.972 71.4992 141.25 71.4992C138.321 71.4992 135.846 69.6115 134.914 66.9993H111.584C110.652 69.6115 108.177 71.4992 105.248 71.4992C101.526 71.4992 98.498 68.4708 98.498 64.7493C98.498 61.0279 101.529 57.9995 105.25 57.9995ZM141.25 66.9993C142.49 66.9993 143.5 65.9913 143.5 64.7493C143.5 63.5074 142.49 62.4994 141.25 62.4994C140.01 62.4994 139 63.5074 139 64.7493C139 65.9913 140.01 66.9993 141.25 66.9993ZM105.25 66.9993C106.49 66.9993 107.5 65.9913 107.5 64.7493C107.5 63.5074 106.49 62.4994 105.25 62.4994C104.01 62.4994 103 63.5074 103 64.7493C103 65.9913 104.01 66.9993 105.25 66.9993Z" fill="#00B2FF"/>
<path d="M87.2498 71.9134V57.9996C87.2498 57.4011 87.486 56.8296 87.909 56.4089L96.909 47.409C97.3298 46.986 97.9035 46.7498 98.4998 46.7498H105.664C106.595 44.1376 109.07 42.2499 112 42.2499C115.721 42.2499 118.75 45.2783 118.75 48.9998C118.75 52.7212 115.721 55.7497 112 55.7497C109.07 55.7497 106.595 53.8619 105.664 51.2497H99.4313L91.7498 58.9311V71.9134C94.362 72.8449 96.2498 75.3198 96.2498 78.2493C96.2498 81.9707 93.2213 84.9992 89.4998 84.9992C85.7783 84.9992 82.7498 81.9707 82.7498 78.2493C82.7498 75.3198 84.6375 72.8449 87.2498 71.9134ZM112 51.2497C113.24 51.2497 114.25 50.2417 114.25 48.9998C114.25 47.7578 113.24 46.7498 112 46.7498C110.76 46.7498 109.75 47.7578 109.75 48.9998C109.75 50.2417 110.76 51.2497 112 51.2497ZM89.4998 80.4992C90.7395 80.4992 91.7498 79.4913 91.7498 78.2493C91.7498 77.0073 90.7395 75.9993 89.4998 75.9993C88.26 75.9993 87.2498 77.0073 87.2498 78.2493C87.2498 79.4913 88.26 80.4992 89.4998 80.4992Z" fill="#00B2FF"/>
<path d="M46.75 80.499C47.7895 80.499 48.7615 80.7533 49.6412 81.1763L53.5 77.3176V55.7494C53.5 55.1509 53.7362 54.5795 54.1592 54.1587L76.6772 31.6411C76.2542 30.7614 76 29.7894 76 28.7499C76 25.0284 79.0285 22 82.75 22C86.4715 22 89.5 25.0284 89.5 28.7499C89.5 32.4713 86.4715 35.4998 82.75 35.4998C81.7105 35.4998 80.7385 35.2455 79.8588 34.8225L58 56.6809V78.2491C58 78.8476 57.7638 79.419 57.3408 79.8398L52.8228 84.3577C53.2458 85.2374 53.5 86.2094 53.5 87.2489C53.5 90.9704 50.4715 93.9988 46.75 93.9988C43.0285 93.9988 40 90.9704 40 87.2489C40 83.5275 43.0285 80.499 46.75 80.499ZM82.75 30.9999C83.9897 30.9999 85 29.9919 85 28.7499C85 27.5079 83.9897 26.4999 82.75 26.4999C81.5103 26.4999 80.5 27.5079 80.5 28.7499C80.5 29.9919 81.5103 30.9999 82.75 30.9999ZM46.75 89.4989C47.9897 89.4989 49 88.4909 49 87.2489C49 86.0069 47.9897 84.999 46.75 84.999C45.5103 84.999 44.5 86.0069 44.5 87.2489C44.5 88.4909 45.5103 89.4989 46.75 89.4989Z" fill="#00B2FF"/>
<path d="M26.5001 53.9135V44.4996C26.5001 43.9011 26.7364 43.3296 27.1594 42.9089L42.9094 27.1592C43.3301 26.7362 43.9039 26.4999 44.5001 26.4999H56.1641C57.0956 23.8877 59.5706 22 62.5001 22C66.2216 22 69.2501 25.0284 69.2501 28.7499C69.2501 32.4713 66.2216 35.4998 62.5001 35.4998C59.5706 35.4998 57.0956 33.6121 56.1641 30.9999H45.4316L31.0001 45.4311V53.9135C33.6124 54.845 35.5001 57.3199 35.5001 60.2494C35.5001 63.9708 32.4716 66.9993 28.7501 66.9993C25.0286 66.9993 22.0001 63.9708 22.0001 60.2494C22.0001 57.3199 23.8879 54.845 26.5001 53.9135ZM62.5001 30.9999C63.7399 30.9999 64.7501 29.9919 64.7501 28.7499C64.7501 27.5079 63.7399 26.4999 62.5001 26.4999C61.2604 26.4999 60.2501 27.5079 60.2501 28.7499C60.2501 29.9919 61.2604 30.9999 62.5001 30.9999ZM28.7501 62.4993C29.9899 62.4993 31.0001 61.4913 31.0001 60.2494C31.0001 59.0074 29.9899 57.9994 28.7501 57.9994C27.5104 57.9994 26.5001 59.0074 26.5001 60.2494C26.5001 61.4913 27.5104 62.4993 28.7501 62.4993Z" fill="#00B2FF"/>
<path d="M57.998 143.914V111.585C55.388 110.653 53.5003 108.178 53.5003 105.249C53.5003 101.527 56.5288 98.4988 60.2503 98.4988C63.1798 98.4988 65.6547 100.387 66.5862 102.999H89.9142C90.8457 100.387 93.3207 98.4988 96.2502 98.4988C99.1797 98.4988 101.655 100.387 102.586 102.999H115.569L123.927 94.6401C123.504 93.7604 123.25 92.7884 123.25 91.7489C123.25 88.0275 126.279 84.999 130 84.999C133.722 84.999 136.75 88.0275 136.75 91.7489C136.75 95.4703 133.722 98.4988 130 98.4988C128.961 98.4988 127.989 98.2446 127.109 97.8216L118.091 106.839C117.67 107.262 117.096 107.499 116.5 107.499H102.586C101.655 110.111 99.1797 111.999 96.2502 111.999C93.3207 111.999 90.8457 110.111 89.9142 107.499H66.584C65.9045 109.404 64.4038 110.905 62.498 111.585V143.914C65.1103 144.846 66.998 147.321 66.998 150.25C66.998 153.972 63.9695 157 60.248 157C56.5265 157 53.498 153.972 53.498 150.25C53.498 147.321 55.3858 144.846 57.998 143.914ZM130 93.9989C131.24 93.9989 132.25 92.9909 132.25 91.7489C132.25 90.5069 131.24 89.4989 130 89.4989C128.76 89.4989 127.75 90.5069 127.75 91.7489C127.75 92.9909 128.76 93.9989 130 93.9989ZM96.2502 107.499C97.49 107.499 98.5002 106.491 98.5002 105.249C98.5002 104.007 97.49 102.999 96.2502 102.999C95.0105 102.999 94.0002 104.007 94.0002 105.249C94.0002 106.491 95.0105 107.499 96.2502 107.499ZM60.2503 152.498C61.49 152.498 62.5003 151.49 62.5003 150.248C62.5003 149.006 61.49 147.998 60.2503 147.998C59.0105 147.998 58.0003 149.006 58.0003 150.248C58.0003 151.49 59.0105 152.498 60.2503 152.498ZM60.2503 107.499C61.49 107.499 62.5003 106.491 62.5003 105.249C62.5003 104.007 61.49 102.999 60.2503 102.999C59.0105 102.999 58.0003 104.007 58.0003 105.249C58.0003 106.491 59.0105 107.499 60.2503 107.499Z" fill="#00B2FF"/>
<path d="M69.2495 67.4132V60.2494C69.2495 59.6509 69.4858 59.0794 69.9088 58.6586L96.9268 31.6411C96.5038 30.7614 96.2495 29.7894 96.2495 28.7499C96.2495 25.0284 99.278 22 103 22C105.929 22 108.404 23.8877 109.336 26.4999H118.75C119.992 26.4999 121 27.5057 121 28.7499V34.5683L129.358 42.9269C130.238 42.5039 131.21 42.2497 132.25 42.2497C135.971 42.2497 139 45.2781 139 48.9996C139 52.721 135.971 55.7494 132.25 55.7494C128.528 55.7494 125.5 52.721 125.5 48.9996C125.5 47.9601 125.754 46.9881 126.177 46.1083L117.159 37.0905C116.736 36.6698 116.5 36.0983 116.5 35.4998V30.9999H109.336C108.404 33.6121 105.929 35.4998 103 35.4998C101.96 35.4998 100.988 35.2455 100.108 34.8225L73.7495 61.1808V67.4132C76.3618 68.3447 78.2495 70.8197 78.2495 73.7491C78.2495 77.4706 75.221 80.499 71.4995 80.499C67.778 80.499 64.7495 77.4706 64.7495 73.7491C64.7495 70.8197 66.6373 68.3447 69.2495 67.4132ZM132.25 51.2495C133.489 51.2495 134.5 50.2415 134.5 48.9996C134.5 47.7576 133.489 46.7496 132.25 46.7496C131.01 46.7496 130 47.7576 130 48.9996C130 50.2415 131.01 51.2495 132.25 51.2495ZM103 30.9999C104.239 30.9999 105.25 29.9919 105.25 28.7499C105.25 27.5079 104.239 26.4999 103 26.4999C101.76 26.4999 100.75 27.5079 100.75 28.7499C100.75 29.9919 101.76 30.9999 103 30.9999ZM71.4995 75.9991C72.7393 75.9991 73.7495 74.9911 73.7495 73.7491C73.7495 72.5072 72.7393 71.4992 71.4995 71.4992C70.2598 71.4992 69.2495 72.5072 69.2495 73.7491C69.2495 74.9911 70.2598 75.9991 71.4995 75.9991Z" fill="#00B2FF"/>
<path d="M76 84.999C78.9295 84.999 81.4045 86.8867 82.336 89.4989H108.818L121.659 76.6583C122.08 76.2353 122.654 75.9991 123.25 75.9991H147.068L152.5 70.5677V52.181L135.141 34.8225C134.261 35.2455 133.289 35.4998 132.25 35.4998C128.528 35.4998 125.5 32.4713 125.5 28.7499C125.5 25.0284 128.528 22 132.25 22C135.971 22 139 25.0284 139 28.7499C139 29.7894 138.746 30.7614 138.323 31.6411L156.341 49.6588C156.764 50.0795 157 50.651 157 51.2495V71.4992C157 72.0977 156.764 72.6692 156.341 73.0899L149.591 79.8398C149.17 80.2628 148.596 80.499 148 80.499H124.181L111.341 93.3396C110.92 93.7626 110.346 93.9988 109.75 93.9988H82.336C81.4045 96.611 78.9295 98.4987 76 98.4987C72.2785 98.4987 69.25 95.4703 69.25 91.7488C69.25 88.0274 72.2785 84.999 76 84.999ZM132.25 26.4999C131.01 26.4999 130 27.5079 130 28.7499C130 29.9919 131.01 30.9999 132.25 30.9999C133.49 30.9999 134.5 29.9919 134.5 28.7499C134.5 27.5079 133.49 26.4999 132.25 26.4999ZM76 93.9988C77.2397 93.9988 78.25 92.9908 78.25 91.7488C78.25 90.5069 77.2397 89.4989 76 89.4989C74.7602 89.4989 73.75 90.5069 73.75 91.7488C73.75 92.9908 74.7602 93.9988 76 93.9988Z" fill="#00B2FF"/>
<path d="M28.7499 75.9993C29.7894 75.9993 30.7614 76.2536 31.6411 76.6766L39.9999 68.3179V55.3357C37.3876 54.4042 35.4999 51.9292 35.4999 48.9998C35.4999 45.2783 38.5284 42.2499 42.2499 42.2499C45.9714 42.2499 48.9999 45.2783 48.9999 48.9998C48.9999 51.9292 47.1121 54.4042 44.4999 55.3357V69.2494C44.4999 69.8479 44.2636 70.4194 43.8406 70.8402L34.8226 79.858C35.2456 80.7377 35.4999 81.7097 35.4999 82.7492C35.4999 85.6787 33.6121 88.1536 30.9999 89.0851V90.8176L48.3406 108.158C48.7636 108.579 48.9999 109.15 48.9999 109.749V112.413C51.6121 113.344 53.4999 115.819 53.4999 118.749C53.4999 121.678 51.6121 124.153 48.9999 125.084V130.415C51.6121 131.346 53.4999 133.821 53.4999 136.751C53.4999 140.472 50.4714 143.5 46.7499 143.5C43.0284 143.5 39.9999 140.472 39.9999 136.751C39.9999 133.821 41.8876 131.346 44.4999 130.415V125.084C41.8876 124.153 39.9999 121.678 39.9999 118.749C39.9999 115.819 41.8876 113.344 44.4999 112.413V110.68L27.1591 93.3398C26.7361 92.919 26.4999 92.3475 26.4999 91.749V89.0851C23.8876 88.1536 21.9999 85.6787 21.9999 82.7492C21.9999 79.0278 25.0284 75.9993 28.7499 75.9993ZM42.2499 51.2497C43.4896 51.2497 44.4999 50.2417 44.4999 48.9998C44.4999 47.7578 43.4896 46.7498 42.2499 46.7498C41.0101 46.7498 39.9999 47.7578 39.9999 48.9998C39.9999 50.2417 41.0101 51.2497 42.2499 51.2497ZM46.7499 138.998C47.9896 138.998 48.9999 137.99 48.9999 136.748C48.9999 135.506 47.9896 134.498 46.7499 134.498C45.5101 134.498 44.4999 135.506 44.4999 136.748C44.4999 137.99 45.5101 138.998 46.7499 138.998ZM46.7499 120.999C47.9896 120.999 48.9999 119.991 48.9999 118.749C48.9999 117.507 47.9896 116.499 46.7499 116.499C45.5101 116.499 44.4999 117.507 44.4999 118.749C44.4999 119.991 45.5101 120.999 46.7499 120.999ZM28.7499 84.9992C29.9896 84.9992 30.9999 83.9912 30.9999 82.7492C30.9999 81.5072 29.9896 80.4992 28.7499 80.4992C27.5101 80.4992 26.4999 81.5072 26.4999 82.7492C26.4999 83.9912 27.5101 84.9992 28.7499 84.9992Z" fill="#00B2FF"/>
</svg>
